<svg xmlns="http://www.w3.org/2000/svg" viewBox="0 0 1024 1024">
<path fill="#60b53f" stroke="#60b53f" d="M716.813 198.683c.721.289 1.584.253 1.916-.079.332-.332-.258-.568-1.312-.525-1.165.048-1.402.285-.604.604M533.555 412.912c-.533.861-4.555 19.457-4.555 21.056 0 .922 8.561 6.15 20.5 12.519 28.117 15.001 39.803 21.918 38.428 22.746-.785.473-13.992 7.795-29.349 16.27-15.357 8.476-28.451 15.992-29.099 16.704-1.922 2.111 1.449 23.171 3.78 23.611 1.642.31 11.894-4.79 24.74-12.308 3.025-1.77 18.1-10.32 33.5-18.999 15.4-8.68 28.529-16.283 29.176-16.896 1.36-1.289 2.411-14.199 1.385-17.014-.394-1.081-6.686-5.204-14.626-9.583-39.635-21.86-46.821-25.857-57.837-32.168-11.582-6.635-14.862-7.849-16.043-5.938m92.938 95.099c-.863 1.396-.922 20.486-.068 21.868.495.8 12.983 1.121 43.599 1.121 49.704 0 44.976 1.262 44.976-12s4.728-12-44.976-12c-27.828 0-43.125.355-43.531 1.011" fill-rule="evenodd"/>
<path fill="#459e37" stroke="#459e37" d="M725 196.663c-1.375.214-8.8 1.32-16.5 2.456-115.625 17.065-195.13 36.301-263.805 63.826C377.352 289.937 324.028 324.088 288.464 363c-5.414 5.925-5.178 5.77 2.676-1.75 4.738-4.538 9.094-8.25 9.679-8.25 2.163 0 2.133 1.895-.059 3.694-2.205 1.809-3.754 5.038-1.854 3.864.526-.325 1.238-.133 1.584.426.345.559.125 1.016-.49 1.016s-.797.52-.405 1.155c.409.661.278.885-.307.523-1.297-.801-4.549 2.702-3.54 3.813.414.457.24.537-.385.18-.625-.357-1.688.016-2.363.829s-1.672 1.203-2.217.866c-.545-.337-.244.526.668 1.918 1.166 1.78 1.326 2.736.538 3.223-.772.477-.574 1.294.64 2.635 1.684 1.861 1.679 1.914-.099 1.231-1.146-.44-1.621-.328-1.238.29.341.552.04 1.004-.669 1.004-.709 0-1.29-.581-1.29-1.29 0-.709.307-1.099.682-.867.376.231.72-.903.766-2.521.064-2.242-.201-2.676-1.113-1.823-3.086 2.882-.733 9.803 3.332 9.803 1.333 0 1.333-.107 0-.969-.901-.582-1.025-.975-.309-.985 2.1-.027 2.527 2.004.932 4.437-1.363 2.081-1.372 2.512-.074 3.589 1.037.86 1.171 1.591.451 2.459-1.108 1.335 1.478 4.355 2.691 3.143.353-.354.117-.643-.524-.643-.642 0-1.167-.675-1.167-1.5s.563-1.507 1.25-1.515c.84-.011.898-.256.177-.75-1.702-1.166-2.446-4.105-1.229-4.857.611-.378.846-.259.522.265-1.281 2.074.989 3.837 2.954 2.293 1.605-1.263 1.691-1.255.712.064-2.975 4.007-.378 5.835 7.114 5.01 1.933-.213 1.94-.154.203 1.766-1.678 1.854-1.687 2.097-.131 3.653.916.916 1.92 1.412 2.23 1.102.311-.31.032-1.097-.619-1.748-1.827-1.827-1.417-2.585 1.316-2.427 2.573.148 3.358 1.192 1.389 1.848-.611.204-1.146 2.271-1.189 4.594-.053 2.844-.408 3.893-1.089 3.212-.555-.555-1.65-1.01-2.432-1.01-2.543 0 .618 2.743 3.678 3.192 2.61.383 2.783.186 2.677-3.029-.138-4.165 1.984-6.809 4.073-5.075 2.023 1.679 1.709 3.228-.535 2.641-1.431-.374-1.893-.017-1.788 1.383.079 1.038.517 1.888.974 1.888.457 0 .698.627.537 1.393-.393 1.861 5.083 6.868 6.792 6.212.742-.285 1.659-.018 2.036.593.416.673.232.83-.467.397-1.521-.939-1.487.673.045 2.205 1.577 1.577 6.476 1.543 7.207-.05.316-.687.293-.125-.051 1.25-.689 2.752-2.264 4.175-3.665 3.309-.497-.307-.294-.946.452-1.419.746-.473.885-.866.307-.875-2.064-.03-3.383 2.141-2.124 3.495.938 1.009 1.75.853 4.04-.774 2.812-1.999 2.846-2 1.804-.054-.583 1.09-1.76 2.563-2.615 3.273-.855.709-1.548 1.797-1.54 2.417.009.669.365.577.872-.224.673-1.062 1.197-.866 2.443.913.873 1.246 1.357 2.636 1.076 3.091-.28.454.262.529 1.206.167 1.157-.444 1.483-.281 1 .5-.468.756-.178.952.836.563.854-.328 1.552-.098 1.552.511s.477 1.107 1.059 1.107.784-.445.448-.989c-.35-.566.05-.735.935-.395.851.327 1.291 1.109.978 1.739-.313.63.158.247 1.045-.85 1.673-2.068 4.207-.401 2.815 1.852-.324.524-.069.631.565.238.635-.392 1.155-1.309 1.155-2.037 0-.729.879-1.555 1.954-1.836 1.843-.482 1.865-.375.385 1.884-.976 1.489-1.148 2.394-.454 2.394.613 0 1.115-.52 1.115-1.155 0-.684.758-.469 1.859.528 1.06.959 1.745 2.733 1.592 4.124-.148 1.343.028 2.343.39 2.223.363-.121.659.227.659.773s-.675.865-1.5.709c-1.296-.247-1.303-.153-.048.69.799.537 1.831.742 2.294.456.463-.286 1.609.081 2.548.816 1.517 1.188 1.562 1.152.407-.325-.776-.993-.914-1.898-.343-2.251.525-.324.693-1.602.375-2.839-.539-2.091-.445-2.144 1.344-.749 1.756 1.37 1.81 1.356.624-.161-.889-1.137-.962-1.869-.233-2.319.585-.362.867-.977.627-1.367-1.001-1.619 3.339-5.731 4.382-4.153.781 1.18.996 1.207 1.008.128.011-1.026.35-1.095 1.339-.274 1.242 1.031 4.65.898 6.513-.253.456-.282.83.122.83.899s-.284 1.237-.631 1.022c-1.595-.986-3.115 1.168-1.67 2.367 1.155.958 1.735.919 2.768-.187.719-.77 2.159-1.177 3.2-.904 1.642.429 1.746.219.781-1.582-.862-1.612-.786-2.402.339-3.528.798-.797 1.266-1.634 1.041-1.859-.225-.226.584-.458 1.798-.518 1.214-.059 1.642.11.951.376s-.995.907-.676 1.423c.319.517.21.875-.244.796-2.229-.387-2.519.246-.765 1.668 1.067.866 1.309 1.246.536.846-.924-.48-1.16-.334-.689.428.53.858 1.252.87 2.79.047 1.686-.902 1.815-1.291.689-2.079-1.075-.751-1.104-1.082-.129-1.478.691-.28.959-.99.596-1.578-.392-.634-.188-.777.501-.351.64.396.97 1.781.735 3.079-.27 1.486.131 2.574 1.082 2.939 1.731.664 3.593-.192 2.89-1.329-.259-.421.191-.765 1.002-.765 1.129 0 1.002.502-.544 2.148-3.546 3.774-1.746 4.42 3.188 1.144 1.488-.989 3.181-1.504 3.761-1.145 1.562.965.878 6.52-.802 6.52-1.087 0-1.147-.317-.262-1.383.878-1.059.824-1.508-.23-1.912-.995-.382-1.298.207-1.089 2.113.16 1.453-.244 3.031-.897 3.506-.712.519-.386.57.813.129 1.1-.405 3.233-.948 4.74-1.206 1.599-.275 2.467-.913 2.084-1.532-.361-.583.417-.31 1.727.608 2.265 1.587 2.437 1.567 3.487-.395 1.083-2.022 1.171-2.002 4.385 1 1.804 1.686 3.797 2.755 4.429 2.376.631-.378.521.085-.245 1.029-1.312 1.616-1.504 1.617-3.271.019-1.79-1.621-1.856-1.587-1.43.725.245 1.333.479 2.76.52 3.173.041.413.579.75 1.196.75.742 0 .663-.594-.232-1.75-1.527-1.972 1.704.504 5.825 4.465 1.413 1.357 2.946 1.969 3.959 1.58 1.103-.423 1.415-.249.938.524-.478.773-.163.946.946.521 1.521-.584 1.525-.714.044-1.543-.89-.498-2.033-.649-2.541-.335-.507.314-1.248.044-1.646-.6-.42-.679-.293-.905.301-.537 1.403.866 4.743-2.372 4.962-4.81.098-1.092-.339-2.305-.971-2.696-2.287-1.414-.048-1.708 2.589-.341 1.487.772 2.76 1.205 2.829.963.069-.243.181-.854.25-1.358.069-.504.535-1.291 1.035-1.75.529-.484.609-.309.191.417-.395.688-.298 1.25.218 1.25 1.356 0 3.281-2.567 2.506-3.342-.362-.362-.055-.658.683-.658.853 0 .488-.908-1.004-2.496-1.29-1.373-2.043-2.798-1.675-3.167.369-.369.671-.119.671.555s.399.98.886.678c.488-.301 1.121.347 1.407 1.441.601 2.298 2.707 2.703 2.707.52 0-.894.586-1.243 1.5-.893 1.513.581 2.142 2.463.75 2.244-2.005-.317-2.598.256-1.25 1.209 1.333.943 1.333 1.012 0 .616-3.045-.905-5.273 2.313-3.258 4.705 1.744 2.071 1.741 2.073-.393.273-2.26-1.908-4.163-.799-2.686 1.565.429.688.872 1.854.984 2.592.304 2.011 1.564 2.835 2.087 1.366.366-1.025.766-1.038 1.939-.064 1.182.981 1.665.939 2.403-.208.802-1.247 1.047-1.245 1.854.009.663 1.031.067 2.534-2.084 5.25-1.658 2.093-2.791 3.805-2.519 3.805.273 0 3.782-4.163 7.799-9.25a1035.065 1035.065 0 0 1 14.797-18.224c6.863-8.219 7.102-8.646 2.833-5.078-2.564 2.143-4.371 4.381-4.017 4.974.355.593-.116.46-1.047-.294-1.832-1.486-2.32-2.634-.692-1.628.893.552 1.492-1.577 1.084-3.854-.445-2.481 1.121-4.721 2.5-3.576 1.148.952 1.416.762 1.416-1.007 0-1.199.45-1.903 1-1.563.55.34 1 .179 1-.358 0-.536-.511-1.146-1.135-1.354-.624-.208.726-.389 3-.402 4.291-.025 4.821.383 3.141 2.42-3.871 4.692 4.794-4.64 14.747-15.882 31.631-35.73 77.64-79.846 115.747-110.984 40.653-33.219 69.211-54.293 110.25-81.358C719.337 202.6 728 196.687 728 196.443c0-.243-.112-.382-.25-.307-.138.075-1.375.312-2.75.527M300 355.059c0 .582.45.781 1 .441s1-.816 1-1.059-.45-.441-1-.441-1 .477-1 1.059m-6 9.833c0 .674-.419.967-.931.651a1.106 1.106 0 0 0-1.516.372c-.322.521-.179 1.198.317 1.505 1.101.68 3.675-2.208 2.773-3.111-.354-.353-.643-.091-.643.583m2.5 4.108c-.34.55-.141 1 .441 1s1.059-.45 1.059-1-.198-1-.441-1-.719.45-1.059 1m-22.628 10.75c-1.243 1.586-1.208 1.621.378.378 1.666-1.307 2.195-2.128 1.372-2.128-.207 0-.995.788-1.75 1.75m-3 4c-1.243 1.586-1.208 1.621.378.378.962-.755 1.75-1.543 1.75-1.75 0-.823-.821-.294-2.128 1.372m-3 4c-1.243 1.586-1.208 1.621.378.378 1.666-1.307 2.195-2.128 1.372-2.128-.207 0-.995.788-1.75 1.75M313 394.789c0 1.181.283 1.221 1.5.211.825-.685 1.5-1.34 1.5-1.456 0-.116-.675-.211-1.5-.211s-1.5.655-1.5 1.456m-22.187-.106c.721.289 1.584.253 1.916-.079.332-.332-.258-.568-1.312-.525-1.165.048-1.402.285-.604.604m11.187.376c0 .582.45.781 1 .441s1-.816 1-1.059-.45-.441-1-.441-1 .477-1 1.059m19.603 3.774c-.283.459.12.834.897.834s1.18-.375.897-.834c-.283-.458-.687-.833-.897-.833-.21 0-.614.375-.897.833m154.635 6.33c-.681.68-1.238 1.784-1.238 2.454 0 .669-.562 1.443-1.25 1.721-.722.291-.787.537-.155.583 1.513.109 4.692-3.561 4.245-4.901-.252-.755-.749-.711-1.602.143m-155.559 3.548c-.301.486-.183 1.474.262 2.194.615.994.986 1.022 1.547.115.406-.657.288-1.644-.262-2.194-.56-.56-1.241-.61-1.547-.115m213.583 3.106c-1.415.898-5.691 20.623-4.911 22.655.529 1.378 6.785 4.997 38.649 22.358 10.175 5.544 19.091 10.438 19.813 10.875.873.528-4.798 4.149-16.91 10.795-10.023 5.5-23.664 12.995-30.313 16.657l-12.09 6.656.31 5.844c.17 3.213.845 8.543 1.5 11.843 1.927 9.714-3.71 12.006 62.19-25.287l30-16.976.289-8.638.289-8.637-5.789-3.54c-3.184-1.947-16.814-9.614-30.289-17.038-13.475-7.423-30.415-16.847-37.644-20.941-7.229-4.094-13.304-7.436-13.5-7.428-.196.009-.913.369-1.594.802M332.25 422.662c-1.693.683-1.576 1.999.238 2.695.86.33 1.388.059 1.25-.643-.137-.698.613-1.09 1.762-.922 1.647.24 1.736.11.5-.735-1.634-1.118-1.891-1.145-3.75-.395m79.353 2.171c-.283.459.12.834.897.834s1.18-.375.897-.834c-.283-.458-.687-.833-.897-.833-.21 0-.614.375-.897.833m29.587 3.263c-.148 1.939.347 2.94 1.662 3.357 2.962.94 1.387 7.387-1.927 7.888-.784.118-1.949.543-2.59.943-.64.401-1.366.163-1.613-.528-.246-.691-.81-.919-1.252-.506-1.068.997-.244 1.716 2.597 2.263 1.286.248 2.697-.104 3.135-.781.612-.945 1.053-.883 1.892.268.955 1.309 1.031 1.297.593-.091-.276-.875-.1-2.225.39-3 .714-1.128.895-1.048.908.4.008.995.465 1.531 1.015 1.191.55-.34 1-.168 1 .382s-.45 1.278-1 1.618c-.55.34-1 1.102-1 1.693s2.24-1.348 4.977-4.309c4.893-5.293 4.944-5.412 2.979-7.062-1.1-.922-1.586-1.932-1.082-2.244.504-.312 1.174.106 1.49.928.315.822 1.033 1.494 1.595 1.494s.255-.895-.681-1.988c-.969-1.131-2.078-1.612-2.574-1.116-1.247 1.247-4.827.119-4.001-1.26.375-.625-.115-.49-1.087.3-1.742 1.414-4.213-.16-3.094-1.972.215-.347-.175-.631-.866-.631-.691 0-1.351 1.244-1.466 2.763m-106.616.237c.282.734 1.161 1.334 1.953 1.334 1.088 0 1.17-.327.335-1.334-.609-.733-1.488-1.333-1.953-1.333-.465 0-.616.6-.335 1.333m33.455-.372c-.809.512-1.211 1.191-.893 1.509.319.318 1.148-.108 1.844-.946 1.443-1.738 1.166-1.902-.951-.563m68.853.789a5.707 5.707 0 0 0 0 1.5c.065.413-.257.75-.715.75-.459 0-.834.668-.834 1.484 0 1.098.336 1.206 1.29.414.709-.589 1.759-.78 2.333-.425.574.355 1.044.217 1.044-.307s-.704-1.222-1.563-1.552c-.86-.33-1.284-1.053-.941-1.607.342-.554.37-1.007.063-1.007s-.612.337-.677.75m7.042 1.53c2.422 2.717 3.737 3.599 2.583 1.731-.345-.557.038-.739.878-.417.894.343 1.238 1.224.862 2.206-.555 1.446-.444 1.465.964.167.876-.807 1.183-1.618.684-1.802-.499-.185-.653-.747-.342-1.25.509-.824-1.714-1.392-3.908-.998-.471.084-1.596-.411-2.5-1.102-.905-.69-.554-.031.779 1.465m-92.845 2.303c.048 1.165.285 1.402.604.605.289-.722.253-1.585-.079-1.917-.332-.332-.568.258-.525 1.312m32.48.123c-.882 2.301.244 2.919 2.042 1.121 1.367-1.367 1.374-1.622.059-2.127-.85-.326-1.756.108-2.101 1.006m26.033-.086c-.313.816-.215 1.265.217.998.433-.267 1.44-.073 2.239.433 1.204.762 1.154.921-.298.934-.962.008-1.75.413-1.75.9 0 .844 4.343 4.115 5.465 4.115 1.172 0 .442-4.236-.974-5.652-.83-.83-1.311-1.83-1.069-2.221.241-.392-.393-.775-1.41-.851-1.018-.077-2.107.528-2.42 1.344M353 433.75c0 .623.498 1.44 1.107 1.816.804.497.798.875-.024 1.383-.754.466-.379 1.339 1.126 2.625 1.558 1.33 1.859 1.411.973.262-1.078-1.397-.954-1.971.777-3.583 1.576-1.469 1.706-1.92.551-1.92-.831 0-1.524.488-1.542 1.084-.017.595-.692.209-1.5-.858-.807-1.068-1.468-1.432-1.468-.809m32.143 2.14c-.834.529-.971 1.098-.355 1.479.552.341 1.26-.053 1.576-.875.662-1.727.6-1.757-1.221-.604m42.995.443c-.827.997-.773 1.334.211 1.334.725 0 1.318-.6 1.318-1.334 0-.733-.095-1.333-.211-1.333-.116 0-.709.6-1.318 1.333m-48.041 1.05c-1.21 1.458 1.508 3.406 2.796 2.004.334-.364.042-.863-.649-1.109-.691-.247-1.002-.86-.691-1.363.875-1.416-.172-1.079-1.456.468m9.508.867c.229 1.238.15 1.688-.177 1-.327-.687-1.104-1.25-1.726-1.25-.639 0-.424.707.493 1.624 1.366 1.365 1.854 1.409 3.064.278 1.17-1.092 1.2-1.586.162-2.624-1.834-1.833-2.291-1.589-1.816.972m27.395.541c0 .4.883 1.28 1.963 1.954 1.618 1.01 1.868.978 1.423-.182-.581-1.512-3.386-2.981-3.386-1.772m10 1.15c0 .518.445 1.216.989 1.552.566.35.734-.051.393-.941-.665-1.732-1.382-2.049-1.382-.611m-43.347 1.522c-1.016.77-2.591 1.134-3.5.809-.909-.325-1.346-.249-.97.168 1.149 1.277 7.812 1.259 6.752-.018-.505-.608-.622-1.402-.26-1.764 1.147-1.146-.103-.649-2.022.805m6.96 1.72c.289.467.944.591 1.456.274 1.308-.808 1.161-1.124-.525-1.124-.801 0-1.22.383-.931.85m47.841.743c.406.656-.309 1.074-1.836 1.074-1.375 0-2.825.526-3.223 1.17-.5.808-.156.952 1.111.466 1.009-.387 2.095-.323 2.414.142.319.465 1.559.343 2.756-.272 2.172-1.115 2.172-1.12.146-2.385-1.129-.705-1.736-.792-1.368-.195M412 449.902c0 1.038 1.902 2.541 2.466 1.948.183-.192-.297-.93-1.067-1.639-.769-.71-1.399-.849-1.399-.309m21.872 9.848c-1.243 1.586-1.208 1.621.378.378 1.666-1.307 2.195-2.128 1.372-2.128-.207 0-.995.788-1.75 1.75m-3 4c-1.243 1.586-1.208 1.621.378.378.962-.755 1.75-1.543 1.75-1.75 0-.823-.821-.294-2.128 1.372m195.448 44.071c-1.748 1.75-1.849 20.25-.12 21.979 1.726 1.726 85.874 1.726 87.6 0 1.721-1.721 1.634-20.195-.102-21.636-2.088-1.733-85.661-2.061-87.378-.343" fill-rule="evenodd"/>
<path fill="#282d3a" stroke="#282d3a" d="M715.5 197.577C610.1 213.38 547.974 226.828 487 247.038 342.341 294.984 253.461 370.797 232.643 464c-14.226 63.69-1.152 125.786 38.063 180.789 7.636 10.71 32.904 37.034 34.206 35.635.473-.508 5.018-9.924 10.101-20.924 20.122-43.547 41.274-83.983 57.017-109C454.556 419.363 554.488 316.189 689 223.246c2.475-1.711 12.761-8.54 22.857-15.178 20.014-13.158 19.937-12.934 3.643-10.491M533.258 412.25c-1.141 1.445-4.258 16.474-4.258 20.53 0 3.282-2.547 1.638 30.618 19.767 14.785 8.082 27.253 15.033 27.706 15.448.453.414-3.597 3.129-9 6.034-14.328 7.702-45.401 24.975-48.048 26.71-4.428 2.901-.865 26.152 4.021 26.246.743.014 37.071-20.29 72.703-40.635l15.5-8.85v-18.784L600 446.253a10737.244 10737.244 0 0 1-42.804-23.858c-20.833-11.692-22.244-12.29-23.938-10.145M626.2 507.2c-1.378 1.378-1.674 20.504-.35 22.591 1.092 1.722 85.749 1.786 87.821.067 1.766-1.466 1.877-20.91.129-22.658-1.726-1.726-85.874-1.726-87.6 0" fill-rule="evenodd"/>
<path fill="#141c24" stroke="#141c24" d="M722 196.115c-3.575.489-10.775 1.555-16 2.37-5.225.814-17.15 2.636-26.5 4.047-54.723 8.263-131.887 24.727-165.5 35.312-68.915 21.702-105.392 37.186-150.706 63.975-40.476 23.928-77.541 57.655-100.204 91.181-50.176 74.228-49.019 169.779 2.986 246.502 9.727 14.35 37.546 44.279 39.377 42.362.191-.2 2.462-5.089 5.047-10.864 19.252-43.019 41.718-86.939 58.314-114C434.342 450.149 517.819 355.972 616.5 277.567c19.477-15.475 25.5-19.717 25.5-17.959 0 1.395.357 1.286 2-.608 2.466-2.843 2.569-3.657.25-1.977-.962.698.05-.332 2.25-2.289 2.2-1.956 4.675-3.591 5.5-3.632 4.068-.205 5-.546 5-1.828 0-.765-.45-1.114-1-.774-.55.34-1 .397-1 .127 0-.426 3.783-3.221 21-15.517 4.342-3.101 3.681-2.406-7.359 7.735-4.873 4.476-9.271 7.884-9.775 7.572-.503-.311-.807-.195-.674.259.133.453-17.098 18.149-38.291 39.324-95.987 95.908-145.557 162.958-202.568 274-19.835 38.634-33.744 70.984-54.385 126.5-8.093 21.764-16.482 48.529-28.524 91-4.658 16.428-4.723 16.001 2.94 19.439 13.798 6.191 29.406 10.474 36.078 9.9 4.642-.399 4.55-.166 7.507-19.002 4.139-26.371 11.356-63.496 13.514-69.521.308-.861 1.837-.668 5.599.707 24.832 9.076 66.267 15.339 101.438 15.332 20.082-.004 28.253-.491 49.5-2.951 16.339-1.892 46.628-8.52 59-12.911 55.706-19.768 83.354-35.849 113.001-65.725 85.544-86.202 89.95-256.273 11.678-450.768-3.76-9.343-3.445-9.147-12.679-7.885m-41.128 33.635c-1.243 1.586-1.208 1.621.378.378 1.666-1.307 2.195-2.128 1.372-2.128-.207 0-.995.787-1.75 1.75m-42.182 31.724c-.995.734-1.424 1.573-.952 1.864 1.204.744 3.583-.89 3.134-2.152-.24-.674-1.016-.571-2.182.288M546 446.393c0 .216.698.661 1.552.989.89.341 1.291.173.941-.393-.587-.951-2.493-1.406-2.493-.596m39.265 21.205c.387.387-.077 1.336-1.031 2.108-1.529 1.238-1.438 1.263.766.214 3.348-1.595 3.338-1.576 1.324-2.349-.97-.372-1.446-.36-1.059.027m26.176 16.957c-1.864 1.494-1.852 1.512.309.465 1.237-.6 2.25-1.3 2.25-1.555 0-.765-.519-.544-2.559 1.09m-16 9c-1.864 1.494-1.852 1.512.309.465 1.237-.6 2.25-1.3 2.25-1.555 0-.765-.519-.544-2.559 1.09m-15.191 8.55c-2.888 1.683-5.25 3.291-5.25 3.573 0 .555 8.893-4.39 10.45-5.811 1.695-1.547.155-.884-5.2 2.238m-25.917 14.646c-5.592 3.161-10.011 5.904-9.821 6.095.393.392 20.488-10.84 20.488-11.451 0-.663-.187-.569-10.667 5.356m-26.254-.168c.048 1.165.285 1.402.604.605.289-.722.253-1.585-.079-1.917-.332-.332-.568.258-.525 1.312m1.116 5.917c.02 1.65.244 2.204.498 1.231.254-.973.237-2.323-.037-3-.274-.677-.481.119-.461 1.769m186.884 4.095c-.203 5.379-.262 5.386-46.158 5.633-23.331.125-33.486.359-22.566.521 15.87.235 19.644.548 18.804 1.559-1.104 1.331.644 1.78 7.591 1.947 1.788.043 3.257.566 3.265 1.162.009.596.411.459.894-.304.539-.851 1.885-1.194 3.485-.889 1.433.274 2.606.125 2.606-.331 0-.457.68-.569 1.511-.25 1.128.433 1.348.108.866-1.282-.596-1.717-.539-1.731.738-.18 1.396 1.694 2.871 2.155 6.194 1.937 1.011-.066 1.518-.589 1.149-1.186-.363-.588-1.275-.832-2.027-.544-.752.289-1.633.094-1.958-.432-.334-.54.958-.956 2.968-.956 3.94 0 4.068.177 2.395 3.316-1.036 1.945-.988 2.04.436.865 1.189-.981 2.113-1.045 3.598-.25 2.396 1.282 3.435 1.372 2.733.236-.283-.459.12-.834.897-.834s1.199.344.94.765c-.26.42-.108.989.338 1.265.988.61 7.222-3.213 7.222-4.43 0-.479.788-.617 1.75-.307 1.477.475 1.516.394.25-.516-1.347-.97-.761-1.546 1.25-1.228.413.065.679-.219.591-.632-.087-.413.18-1.523.595-2.467.414-.944.521-2.294.237-3-.283-.706-.551-.34-.594.812m-182.266 1.088c.721.289 1.584.253 1.916-.079.332-.332-.258-.568-1.312-.525-1.165.048-1.402.285-.604.604M668 534.167c0 .641.296.87.658.508.362-.362 1.348-.099 2.192.584 1.067.863 1.319.882.827.062-.44-.734.147-1.342 1.558-1.613 1.42-.273.866-.486-1.485-.572-2.268-.082-3.75.325-3.75 1.031m8.192-.092c.197.591.785 1.075 1.308 1.075s1.111-.484 1.308-1.075c.197-.591-.391-1.075-1.308-1.075s-1.505.484-1.308 1.075m34.367 2.457c-1.068.807-1.405 1.468-.75 1.468h1.691c.275 0 .462-.287.415-.638-.047-.351.515-1.019 1.25-1.485.734-.465.885-.839.335-.83-.55.009-1.874.677-2.941 1.485" fill-rule="evenodd"/>
</svg>
